<?xml version="1.0" standalone="no"?>
<!DOCTYPE svg PUBLIC "-//W3C//DTD SVG 20010904//EN"
 "http://www.w3.org/TR/2001/REC-SVG-20010904/DTD/svg10.dtd">
<svg version="1.0" xmlns="http://www.w3.org/2000/svg"
 width="4691.000000pt" height="4691.000000pt" viewBox="0 0 4691.000000 4691.000000"
 preserveAspectRatio="xMidYMid meet">

<g transform="translate(0.000000,4691.000000) scale(0.100000,-0.100000)"
fill="#000000" stroke="none">
<path d="M0 31622 c0 -11042 3 -15291 11 -15299 8 -8 8 -17 0 -31 -8 -15 -11
-2292 -11 -8156 l0 -8136 23455 0 23455 0 0 23455 0 23455 -23455 0 -23455 0
0 -15288z m44707 15236 c-3 -8 -6 -5 -6 6 -1 11 2 17 5 13 3 -3 4 -12 1 -19z
m-5989 -14 c8 -55 -38 -96 -67 -60 -13 15 -5 40 22 74 15 19 41 10 45 -14z
m-13974 8 c8 -13 -5 -52 -15 -46 -12 7 -12 54 0 54 6 0 12 -4 15 -8z m-4558
-1019 c-11 -11 -19 6 -11 24 8 17 8 17 12 0 3 -10 2 -21 -1 -24z m4845 -6 c-1
-12 -15 -9 -19 4 -3 6 1 10 8 8 6 -3 11 -8 11 -12z m-13301 -43 c0 -8 -4 -14
-10 -14 -5 0 -10 9 -10 21 0 11 5 17 10 14 6 -3 10 -13 10 -21z m3920 -166 c0
-16 -3 -19 -11 -11 -6 6 -8 16 -5 22 11 17 16 13 16 -11z m-8900 -610 c0 -16
-3 -19 -11 -11 -6 6 -8 16 -5 22 11 17 16 13 16 -11z m31380 -683 c0 -8 -7
-15 -15 -15 -8 0 -15 7 -15 15 0 8 7 15 15 15 8 0 15 -7 15 -15z m7380 -59 c0
-3 -4 -8 -10 -11 -5 -3 -10 -1 -10 4 0 6 5 11 10 11 6 0 10 -2 10 -4z m-2229
-99 c-13 -13 -15 21 -3 50 6 15 8 13 10 -11 2 -16 -1 -33 -7 -39z m-32081 19
c0 -8 -4 -17 -9 -21 -12 -7 -24 12 -16 25 9 15 25 12 25 -4z m33798 -48 c-2
-6 -10 -14 -16 -16 -7 -2 -10 2 -6 12 7 18 28 22 22 4z m1006 -64 c4 -9 4 -19
2 -21 -8 -8 -26 8 -26 23 0 19 16 18 24 -2z m-35054 -284 c0 -5 -7 -10 -15
-10 -8 0 -15 5 -15 10 0 6 7 10 15 10 8 0 15 -4 15 -10z m34487 -52 c-3 -7 -5
-2 -5 12 0 14 2 19 5 13 2 -7 2 -19 0 -25z m-31707 -88 c0 -5 -2 -10 -4 -10
-3 0 -8 5 -11 10 -3 6 -1 10 4 10 6 0 11 -4 11 -10z m19650 -116 c0 -19 -16
-18 -24 2 -11 27 -7 37 9 24 8 -7 15 -19 15 -26z m-22028 14 c7 -18 -2 -39
-13 -32 -12 7 -12 44 0 44 5 0 11 -6 13 -12z m11320 -112 c-9 -20 -10 -20 -17
6 -9 34 4 58 17 33 7 -11 7 -25 0 -39z m-7015 -138 c-3 -8 -6 -5 -6 6 -1 11 2
17 5 13 3 -3 4 -12 1 -19z m-11577 -347 c0 -5 -7 -14 -15 -21 -12 -10 -15 -10
-15 2 0 8 3 18 7 21 9 10 23 9 23 -2z m-2162 -322 c-2 -6 -8 -10 -13 -10 -5 0
-11 4 -13 10 -2 6 4 11 13 11 9 0 15 -5 13 -11z m44282 -230 c0 -11 -4 -17
-10 -14 -5 3 -10 13 -10 21 0 8 5 14 10 14 6 0 10 -9 10 -21z m-40515 -339
c-5 -8 -11 -8 -17 -2 -6 6 -7 16 -3 22 5 8 11 8 17 2 6 -6 7 -16 3 -22z
m17805 -254 c0 -8 -4 -18 -10 -21 -5 -3 -10 -4 -10 -1 0 2 -3 11 -6 20 -4 11
-1 16 10 16 9 0 16 -6 16 -14z m7200 -7 c15 -27 -3 -49 -42 -49 -39 0 -49 27
-19 52 30 24 48 23 61 -3z m-5540 -151 c0 -26 -16 -55 -25 -47 -8 8 6 69 16
69 5 0 9 -10 9 -22z m-8480 -238 c0 -5 -4 -10 -10 -10 -5 0 -10 5 -10 10 0 6
5 10 10 10 6 0 10 -4 10 -10z m13977 -72 c-3 -8 -6 -5 -6 6 -1 11 2 17 5 13 3
-3 4 -12 1 -19z m-6011 -173 c8 -21 -6 -41 -17 -24 -12 19 -11 39 1 39 6 0 13
-7 16 -15z m19194 -24 c0 -6 -4 -13 -10 -16 -5 -3 -10 1 -10 9 0 9 5 16 10 16
6 0 10 -4 10 -9z m-18817 -82 c3 -13 0 -22 -9 -26 -20 -7 -38 11 -31 31 9 23
34 20 40 -5z m18978 -72 c-10 -9 -11 -8 -5 6 3 10 9 15 12 12 3 -3 0 -11 -7
-18z m-3535 -66 c5 -5 22 -11 39 -13 20 -2 31 -9 33 -23 2 -11 11 -27 19 -37
21 -24 13 -72 -13 -76 -17 -2 -25 7 -43 47 -12 28 -25 51 -30 51 -7 0 -31 43
-31 55 0 8 16 5 26 -4z m-24076 -801 c0 -5 -5 -10 -11 -10 -5 0 -7 5 -4 10 3
6 8 10 11 10 2 0 4 -4 4 -10z m20040 -86 c0 -8 -4 -12 -10 -9 -5 3 -10 10 -10
16 0 5 5 9 10 9 6 0 10 -7 10 -16z m-22202 -171 c5 -17 -26 -29 -40 -15 -6 6
-7 15 -3 22 9 14 37 9 43 -7z m11342 -138 c0 -8 -7 -15 -15 -15 -8 0 -15 7
-15 15 0 8 7 15 15 15 8 0 15 -7 15 -15z m-14210 -220 c0 -8 -7 -15 -15 -15
-8 0 -15 7 -15 15 0 8 7 15 15 15 8 0 15 -7 15 -15z m24160 -225 c0 -5 -2 -10
-4 -10 -3 0 -8 5 -11 10 -3 6 -1 10 4 10 6 0 11 -4 11 -10z m-24800 -51 c0 -5
-7 -9 -15 -9 -15 0 -20 12 -9 23 8 8 24 -1 24 -14z m24860 -15 c0 -8 -4 -12
-10 -9 -5 3 -10 10 -10 16 0 5 5 9 10 9 6 0 10 -7 10 -16z m-19990 -864 c0
-10 -7 -26 -16 -35 -14 -13 -15 -21 -5 -42 15 -32 7 -57 -24 -77 -28 -18 -33
-36 -10 -36 9 0 20 12 26 28 l11 27 19 -24 c23 -28 23 -35 4 -51 -9 -7 -12
-22 -9 -40 5 -23 2 -28 -20 -34 -32 -8 -49 1 -42 19 7 20 -24 77 -44 82 -12 3
-16 11 -12 26 6 28 22 48 32 42 5 -3 12 20 15 50 6 42 13 60 32 75 28 22 43
18 43 -10z m-5990 -121 c0 -5 -7 -9 -15 -9 -15 0 -20 12 -9 23 8 8 24 -1 24
-14z m5899 -137 c12 -23 -1 -45 -22 -36 -20 7 -22 25 -5 42 15 15 16 15 27 -6z
m7791 -293 c0 -5 -4 -9 -10 -9 -5 0 -10 7 -10 16 0 8 5 12 10 9 6 -3 10 -10
10 -16z m-2601 -215 c20 -10 31 -22 29 -33 -5 -24 -33 -19 -36 7 -2 12 -10 22
-18 22 -8 0 -14 5 -14 10 0 13 1 13 39 -6z m-4274 -25 c5 -14 1 -27 -9 -37
-19 -19 -22 -17 -31 26 -6 28 -4 32 14 32 11 0 22 -9 26 -21z m4223 4 c-4 -22
-22 -20 -26 1 -2 10 3 16 13 16 10 0 15 -7 13 -17z m-5434 -38 c4 -16 0 -37
-11 -58 l-18 -32 -3 34 c-7 66 19 110 32 56z m31236 -45 c0 -5 -4 -10 -10 -10
-5 0 -10 5 -10 10 0 6 5 10 10 10 6 0 10 -4 10 -10z m-1425 -30 c3 -5 1 -10
-4 -10 -6 0 -11 5 -11 10 0 6 2 10 4 10 3 0 8 -4 11 -10z m-29849 -107 c-11
-11 -19 6 -11 24 8 17 8 17 12 0 3 -10 2 -21 -1 -24z m10474 -18 c0 -8 -4 -15
-10 -15 -5 0 -10 7 -10 15 0 8 5 15 10 15 6 0 10 -7 10 -15z m-17875 -56 c0
-7 -8 -15 -17 -17 -18 -3 -25 18 -11 32 10 10 28 1 28 -15z m5085 -231 c0 -16
-3 -19 -11 -11 -6 6 -8 16 -5 22 11 17 16 13 16 -11z m20727 -190 c-3 -8 -6
-5 -6 6 -1 11 2 17 5 13 3 -3 4 -12 1 -19z m-11187 -18 c0 -5 -2 -10 -4 -10
-3 0 -8 5 -11 10 -3 6 -1 10 4 10 6 0 11 -4 11 -10z m5080 -45 c0 -8 -7 -15
-15 -15 -8 0 -15 7 -15 15 0 8 7 15 15 15 8 0 15 -7 15 -15z m-17100 -190 c0
-8 -4 -15 -10 -15 -5 0 -10 7 -10 15 0 8 5 15 10 15 6 0 10 -7 10 -15z m14410
-190 c0 -8 -4 -17 -10 -20 -6 -4 -10 5 -10 20 0 15 4 24 10 20 6 -3 10 -12 10
-20z m9832 -60 c0 -5 -5 -11 -11 -13 -6 -2 -11 4 -11 13 0 9 5 15 11 13 6 -2
11 -8 11 -13z m-8202 -260 c0 -43 -10 -50 -27 -19 -22 44 -14 85 14 63 7 -6
13 -26 13 -44z m-12750 -224 c0 -12 -20 -25 -27 -18 -7 7 6 27 18 27 5 0 9 -4
9 -9z m22589 -183 c-9 -16 -14 -19 -17 -9 -2 7 2 17 9 22 20 13 21 11 8 -13z
m-16818 -41 c-8 -8 -11 -5 -11 9 0 27 14 41 18 19 2 -9 -1 -22 -7 -28z m16635
18 c7 -18 27 -19 52 -4 27 17 72 -5 72 -35 0 -31 16 -42 36 -25 13 10 17 10
25 -2 6 -10 2 -15 -16 -17 -14 -2 -30 -12 -35 -23 -16 -28 -110 -28 -128 1 -7
11 -19 20 -27 20 -8 0 -12 6 -9 14 3 8 1 17 -5 21 -6 3 -11 19 -11 36 0 22 5
29 20 29 11 0 23 -7 26 -15z m268 -64 c10 -15 -5 -41 -23 -41 -9 0 -22 -5 -29
-12 -20 -20 -15 19 6 41 19 21 38 26 46 12z m-368 -48 c-10 -10 -19 5 -10 18
6 11 8 11 12 0 2 -7 1 -15 -2 -18z m-21829 -27 c-4 -9 -11 -16 -17 -16 -11 0
-14 33 -3 44 11 10 26 -11 20 -28z m21931 -8 c-3 -7 -13 -13 -23 -13 -10 0
-20 6 -22 13 -3 7 5 12 22 12 17 0 25 -5 23 -12z m92 -47 c0 -10 7 -22 16 -25
9 -3 14 -15 12 -28 -4 -30 -56 -36 -105 -13 -40 19 -39 40 3 40 20 0 33 7 42
23 15 27 32 29 32 3z m140 -16 c0 -8 -9 -19 -20 -25 -17 -9 -20 -8 -20 8 0 10
3 22 7 25 12 12 33 7 33 -8z m-342 -168 c2 -10 -3 -17 -12 -17 -18 0 -29 16
-21 31 9 14 29 6 33 -14z m50 -49 c-2 -13 -7 -23 -13 -23 -5 0 -11 10 -13 23
-2 15 2 22 13 22 11 0 15 -7 13 -22z m-9928 -292 c0 -15 -18 -31 -26 -23 -7 7
7 37 17 37 5 0 9 -6 9 -14z m1420 -102 c0 -8 -4 -14 -10 -14 -5 0 -10 9 -10
21 0 11 5 17 10 14 6 -3 10 -13 10 -21z m-13520 6 c0 -5 -5 -10 -11 -10 -5 0
-7 5 -4 10 3 6 8 10 11 10 2 0 4 -4 4 -10z m4410 0 c0 -5 -7 -10 -15 -10 -8 0
-15 5 -15 10 0 6 7 10 15 10 8 0 15 -4 15 -10z m-9465 -29 c3 -5 1 -12 -5 -16
-5 -3 -10 1 -10 9 0 18 6 21 15 7z m-2777 -24 c2 -12 -3 -17 -17 -17 -12 0
-21 6 -21 13 0 31 32 34 38 4z m1102 -19 c0 -7 -4 -19 -9 -27 -11 -17 -25 3
-17 24 7 18 26 20 26 3z m6270 -40 c0 -13 -6 -18 -17 -16 -15 3 -20 22 -14 54
2 15 31 -20 31 -38z m-1620 -48 c0 -5 -4 -10 -10 -10 -5 0 -10 5 -10 10 0 6 5
10 10 10 6 0 10 -4 10 -10z m6590 -36 c0 -8 -6 -14 -14 -14 -16 0 -29 27 -20
41 8 13 34 -9 34 -27z m-17475 -132 c0 -18 -20 -15 -23 4 -3 10 1 15 10 12 7
-3 13 -10 13 -16z m8255 -11 c0 -6 -4 -13 -10 -16 -5 -3 -10 1 -10 9 0 9 5 16
10 16 6 0 10 -4 10 -9z m26106 -92 c10 -17 -13 -36 -27 -22 -12 12 -4 33 11
33 5 0 12 -5 16 -11z m-22051 -128 c3 -5 1 -12 -5 -16 -5 -3 -10 1 -10 9 0 18
6 21 15 7z m-5193 -13 c7 -19 -2 -38 -17 -38 -21 0 -28 19 -15 35 15 18 26 19
32 3z m24688 -112 c0 -3 -4 -8 -10 -11 -5 -3 -10 -1 -10 4 0 6 5 11 10 11 6 0
10 -2 10 -4z m13495 -265 c3 -5 1 -12 -5 -16 -5 -3 -10 1 -10 9 0 18 6 21 15
7z m-43749 -185 c-60 -59 -67 -64 -76 -46 -15 29 -12 46 14 76 23 28 103 57
119 43 5 -4 -21 -36 -57 -73z m-1136 19 c0 -14 -4 -25 -10 -25 -11 0 -14 33
-3 43 11 11 13 8 13 -18z m26170 -158 c0 -19 -56 -67 -79 -67 -29 0 -26 18 4
26 15 4 28 16 31 30 6 25 44 35 44 11z m-24330 -757 c0 -5 -4 -10 -10 -10 -5
0 -10 5 -10 10 0 6 5 10 10 10 6 0 10 -4 10 -10z m26670 -65 c0 -8 -7 -15 -15
-15 -8 0 -15 7 -15 15 0 8 7 15 15 15 8 0 15 -7 15 -15z m2470 -225 c0 -11 -7
-20 -15 -20 -8 0 -15 9 -15 20 0 11 7 20 15 20 8 0 15 -9 15 -20z m-9360 -160
c0 -5 -4 -10 -9 -10 -6 0 -13 5 -16 10 -3 6 1 10 9 10 9 0 16 -4 16 -10z
m10800 -84 c0 -2 -7 -9 -15 -16 -12 -10 -15 -10 -15 4 0 9 7 16 15 16 8 0 15
-2 15 -4z m-1253 -88 c-3 -8 -6 -5 -6 6 -1 11 2 17 5 13 3 -3 4 -12 1 -19z
m-187 -132 c0 -3 -4 -8 -10 -11 -5 -3 -10 -1 -10 4 0 6 5 11 10 11 6 0 10 -2
10 -4z m13280 -63 c0 -5 -5 -15 -10 -23 -8 -12 -10 -11 -10 8 0 12 5 22 10 22
6 0 10 -3 10 -7z m-42792 -150 c-5 -25 -28 -28 -28 -4 0 12 6 21 16 21 9 0 14
-7 12 -17z m6691 -212 c14 -9 9 -41 -7 -41 -17 0 -45 27 -38 38 9 14 26 15 45
3z m34801 -227 c0 -7 -4 -16 -10 -19 -5 -3 -10 3 -10 14 0 10 -3 28 -6 38 -5
16 -4 16 10 -1 9 -11 16 -25 16 -32z m-38990 -399 c0 -8 -4 -15 -10 -15 -5 0
-10 7 -10 15 0 8 5 15 10 15 6 0 10 -7 10 -15z m10105 -45 c3 -5 1 -10 -4 -10
-6 0 -11 5 -11 10 0 6 2 10 4 10 3 0 8 -4 11 -10z m17365 -186 c0 -8 -4 -12
-10 -9 -5 3 -10 13 -10 21 0 8 5 12 10 9 6 -3 10 -13 10 -21z m13930 -179 c0
-8 -4 -15 -10 -15 -5 0 -10 7 -10 15 0 8 5 15 10 15 6 0 10 -7 10 -15z
m-33171 -67 c0 -31 -1 -31 -10 -10 -5 13 -7 28 -3 33 10 16 14 9 13 -23z
m29787 -56 c-12 -12 -18 8 -10 35 l8 28 4 -28 c2 -16 1 -31 -2 -35z m-15670
-363 c3 -6 1 -16 -5 -22 -6 -6 -11 -19 -11 -29 0 -10 -7 -18 -15 -18 -8 0 -15
9 -15 20 0 11 5 20 10 20 6 0 9 3 9 8 -5 29 13 44 27 21z m7511 -136 c2 -6
-10 -26 -26 -45 l-31 -33 -25 28 c-28 32 -25 47 10 47 13 0 27 5 30 11 9 13
37 8 42 -8z m-17917 -69 c0 -16 -16 -19 -25 -4 -8 13 4 32 16 25 5 -4 9 -13 9
-21z m13830 -279 c0 -8 -2 -15 -4 -15 -2 0 -6 7 -10 15 -3 8 -1 15 4 15 6 0
10 -7 10 -15z m-6870 -45 c0 -5 -4 -10 -10 -10 -5 0 -10 5 -10 10 0 6 5 10 10
10 6 0 10 -4 10 -10z m-2435 -19 c7 -12 -31 -25 -45 -16 -6 4 -8 11 -5 16 8
12 42 12 50 0z m-10025 -575 c0 -8 -7 -16 -15 -20 -15 -5 -21 14 -8 27 11 12
23 8 23 -7z m5890 -76 c0 -5 -4 -10 -10 -10 -5 0 -10 5 -10 10 0 6 5 10 10 10
6 0 10 -4 10 -10z m9060 -136 c0 -14 -21 -19 -33 -7 -9 9 13 34 24 27 5 -3 9
-12 9 -20z m-15276 -3 c8 -13 -4 -42 -15 -35 -12 7 -12 44 0 44 6 0 12 -4 15
-9z m2281 -291 c7 -12 -30 -50 -49 -50 -23 0 -27 15 -10 38 16 23 48 29 59 12z
m21406 -53 c-8 -8 -11 -7 -11 4 0 9 3 19 7 23 4 4 9 2 11 -4 3 -7 -1 -17 -7
-23z m-8721 -21 c0 -17 -27 -29 -35 -16 -4 6 -3 15 0 20 9 15 35 12 35 -4z
m-270 -977 c0 -5 -7 -9 -15 -9 -15 0 -20 12 -9 23 8 8 24 -1 24 -14z m3248
-161 c11 -18 24 -46 28 -63 4 -16 15 -46 26 -65 10 -19 18 -45 18 -57 0 -13 9
-63 19 -111 19 -82 37 -236 61 -524 6 -70 15 -140 19 -155 23 -73 34 -176 27
-255 -4 -46 -11 -148 -16 -228 -8 -125 -15 -165 -51 -290 -45 -152 -47 -170
-34 -315 6 -76 5 -96 -9 -123 -33 -65 -181 -161 -373 -242 -29 -12 -53 -26
-53 -30 0 -14 100 -32 200 -37 109 -6 122 -2 235 72 59 38 165 138 210 197 33
44 45 69 45 95 0 36 15 73 29 73 13 0 57 -109 70 -171 10 -49 9 -61 -7 -100
-11 -24 -39 -64 -62 -89 -23 -25 -53 -63 -68 -85 -31 -46 -40 -54 -107 -99
-61 -40 -321 -156 -350 -156 -4 0 -21 -6 -38 -14 -71 -30 -278 -76 -341 -76
-28 0 -100 14 -161 30 -210 57 -338 39 -551 -78 -71 -39 -148 -75 -171 -82
-47 -12 -61 -25 -38 -34 9 -3 89 -10 178 -16 214 -14 303 -33 377 -81 31 -20
70 -53 85 -73 30 -39 88 -70 117 -63 9 3 25 -1 35 -9 10 -7 26 -14 35 -14 30
0 142 -53 205 -97 34 -24 66 -43 70 -43 5 0 31 -22 58 -50 27 -27 54 -50 61
-50 6 0 19 -9 29 -20 10 -11 23 -20 29 -20 7 0 30 -9 51 -21 22 -11 54 -26 71
-32 40 -15 200 -160 221 -200 31 -61 73 -197 88 -288 8 -52 19 -116 24 -144 5
-27 5 -72 0 -100 -4 -27 -8 -88 -8 -135 -1 -47 -6 -114 -12 -150 -5 -36 -10
-92 -10 -125 0 -33 -7 -91 -14 -130 -8 -38 -19 -128 -26 -199 -6 -71 -17 -147
-25 -169 -8 -22 -14 -50 -14 -64 0 -27 -26 -83 -39 -83 -12 0 -20 252 -10 325
11 86 16 467 5 483 -13 22 -53 -23 -77 -87 -19 -49 -20 -69 -15 -166 7 -135
-6 -203 -64 -335 -23 -52 -58 -131 -77 -175 -19 -44 -43 -88 -55 -99 -11 -10
-28 -37 -38 -60 -9 -23 -33 -66 -52 -96 -19 -30 -49 -84 -66 -120 -79 -161
-102 -200 -117 -200 -8 0 -24 19 -35 43 -27 59 -148 378 -156 413 -3 16 -12
38 -19 50 -14 22 -39 120 -50 191 -6 40 2 102 28 203 14 56 13 185 -2 223 -27
69 -7 326 34 437 22 60 32 220 15 259 -15 36 -24 40 -119 48 -110 9 -173 40
-316 157 -32 25 -139 66 -173 66 -38 0 -153 50 -216 95 -36 25 -69 45 -74 45
-5 0 -16 7 -23 16 -8 9 -34 25 -59 36 -25 11 -52 25 -60 32 -38 33 -326 48
-381 20 -36 -18 -50 -62 -37 -111 5 -21 15 -56 21 -78 5 -22 27 -74 48 -115
67 -133 139 -289 139 -298 0 -5 9 -29 19 -53 35 -80 35 -137 1 -354 -17 -110
-36 -228 -41 -263 -5 -35 -13 -72 -19 -81 -5 -10 -14 -45 -19 -77 -16 -93 -37
-183 -44 -190 -3 -4 -13 -4 -21 -1 -10 4 -16 28 -20 74 -4 37 -11 106 -17 153
-5 47 -14 150 -18 230 -10 159 -7 148 -81 311 -69 151 -69 151 -92 87 -21 -59
-26 -189 -8 -248 21 -71 12 -230 -20 -362 -42 -170 -38 -318 10 -407 6 -11 19
-54 29 -95 15 -61 17 -89 10 -159 -9 -93 -51 -234 -83 -282 -57 -84 -146 -293
-146 -342 0 -16 -4 -33 -10 -39 -5 -5 -13 -49 -16 -98 -6 -72 -11 -94 -30
-115 l-23 -26 -21 21 c-29 28 -77 210 -90 339 -14 137 -51 251 -106 322 -13
17 -24 36 -24 40 0 5 -16 36 -36 69 -54 88 -112 201 -125 242 -7 21 -15 140
-19 267 l-7 230 -53 160 -53 160 -4 150 c-3 83 -8 154 -12 158 -8 8 -27 -32
-56 -122 -15 -44 -17 -73 -11 -165 3 -61 13 -145 21 -186 9 -46 16 -137 16
-235 1 -231 -12 -639 -21 -648 -42 -46 -100 116 -160 448 -6 33 -15 116 -20
185 -5 69 -12 145 -15 170 -9 63 -54 289 -65 325 -6 17 -12 84 -14 150 -4 121
11 232 48 360 40 135 46 165 46 235 0 89 -9 124 -62 250 -37 86 -41 103 -42
185 -1 84 1 94 32 146 47 82 45 165 -8 374 -37 146 -40 167 -40 294 0 163 14
320 40 456 47 245 63 481 41 610 -20 112 -29 226 -21 254 l7 26 20 -33 c11
-18 32 -72 47 -120 15 -48 39 -123 53 -167 14 -44 29 -98 33 -120 75 -405 84
-489 61 -585 -6 -25 -10 -67 -10 -95 0 -90 24 -28 58 148 69 357 76 604 24
807 -8 30 -23 89 -34 130 -12 44 -22 125 -26 197 -6 121 -5 123 27 205 19 46
66 149 107 229 40 80 73 152 73 161 0 8 7 29 15 46 12 23 17 76 20 207 5 181
12 215 44 215 20 0 102 -89 140 -153 13 -21 41 -49 62 -63 22 -13 39 -29 39
-36 0 -6 26 -36 58 -66 314 -299 318 -304 327 -400 3 -37 13 -116 21 -177 28
-195 8 -368 -57 -510 -14 -31 -19 -68 -20 -160 -2 -106 1 -129 25 -199 14 -43
26 -84 26 -91 0 -7 8 -23 19 -36 l18 -23 44 46 c24 25 60 77 79 115 66 131
104 193 116 193 53 0 41 -271 -18 -408 -10 -24 -18 -51 -18 -60 0 -8 -10 -36
-22 -61 -26 -52 -37 -196 -19 -242 9 -25 14 -27 77 -28 37 0 95 -6 127 -12
104 -18 135 -8 268 93 83 63 215 133 269 142 29 5 134 11 355 18 49 1 169 30
217 52 117 52 140 117 92 257 -23 69 -28 100 -27 175 1 80 5 98 31 151 17 33
42 67 55 76 41 27 89 112 90 160 1 44 -10 212 -19 285 -7 53 -25 55 -62 4 -34
-48 -51 -88 -94 -221 -18 -58 -38 -107 -44 -108 -44 -14 -67 104 -62 312 3
143 4 153 33 210 26 51 38 64 85 89 81 42 271 187 313 239 20 24 45 60 57 80
22 37 80 210 80 238 0 22 56 128 82 157 30 31 53 28 76 -10z m5782 -134 c0 -8
-4 -12 -10 -9 -5 3 -10 10 -10 16 0 5 5 9 10 9 6 0 10 -7 10 -16z m-9870 -71
c-1 -24 -2 -26 -11 -10 -5 9 -7 22 -4 27 10 17 15 11 15 -17z m9787 -96 c23
-17 2 -27 -22 -11 -14 9 -22 20 -19 25 5 9 17 5 41 -14z m-1547 3 c0 -5 -4
-10 -10 -10 -5 0 -10 5 -10 10 0 6 5 10 10 10 6 0 10 -4 10 -10z m-3943 -62
c-3 -8 -6 -5 -6 6 -1 11 2 17 5 13 3 -3 4 -12 1 -19z m9383 -32 c0 -3 -4 -8
-10 -11 -5 -3 -10 -1 -10 4 0 6 5 11 10 11 6 0 10 -2 10 -4z m-33780 -46 c0
-5 -5 -10 -11 -10 -5 0 -7 5 -4 10 3 6 8 10 11 10 2 0 4 -4 4 -10z m2550 -112
c0 -18 -2 -20 -9 -8 -6 8 -7 18 -5 22 9 14 14 9 14 -14z m279 -40 c8 -22 87
-267 126 -391 13 -42 33 -74 67 -110 26 -28 51 -60 54 -72 4 -11 14 -33 24
-50 26 -45 33 -131 35 -440 1 -271 2 -283 28 -379 24 -87 27 -108 21 -188 -7
-85 -6 -90 12 -86 13 2 25 21 38 58 15 45 18 83 17 215 -5 463 -5 647 -2 710
2 39 1 90 -3 115 -14 89 -18 205 -7 233 12 32 50 37 77 10 44 -44 62 -124 79
-349 1 -22 13 -63 25 -90 80 -178 111 -421 68 -533 -12 -33 -38 -266 -52 -476
-8 -114 -40 -298 -80 -456 -44 -173 -58 -329 -51 -564 4 -131 11 -201 26 -259
27 -109 29 -355 3 -471 -27 -118 -24 -386 5 -515 23 -104 30 -273 10 -253 -20
20 -72 207 -123 448 -20 92 -26 149 -26 245 0 204 -24 198 -59 -15 -26 -156
-26 -295 -2 -389 58 -222 52 -500 -14 -651 -42 -94 -77 -230 -90 -340 -5 -49
6 -139 19 -152 11 -11 108 -3 144 13 82 34 279 7 402 -56 22 -11 46 -20 54
-20 9 0 30 -6 48 -14 58 -25 141 -39 233 -42 50 -1 104 -7 120 -12 17 -6 74
-25 128 -42 l99 -32 36 43 c21 24 61 70 89 102 29 33 67 85 85 116 17 31 44
72 58 91 15 19 42 66 60 104 l32 69 -5 176 c-4 171 -5 179 -40 276 -19 55 -47
141 -62 191 -25 90 -26 95 -16 245 11 187 7 267 -19 350 -29 95 -37 177 -17
185 42 16 95 -62 116 -171 7 -33 19 -87 26 -120 8 -33 26 -112 41 -175 29
-126 48 -171 95 -225 64 -72 82 -27 50 125 -5 25 -16 79 -25 120 -8 42 -20 88
-25 103 -6 16 -11 42 -11 59 0 17 -4 47 -10 67 -20 77 -69 299 -79 359 -12 76
-64 213 -96 256 -13 17 -44 80 -69 140 -38 87 -45 115 -40 145 12 76 10 74 72
67 71 -8 107 -31 186 -117 96 -106 207 -279 311 -487 31 -62 90 -163 132 -223
148 -219 154 -239 173 -614 6 -115 15 -230 20 -255 5 -25 9 -88 10 -140 0 -52
5 -126 10 -165 12 -96 -3 -230 -46 -400 -64 -255 -71 -281 -91 -320 -11 -22
-30 -74 -43 -115 -13 -41 -29 -82 -35 -90 -7 -8 -20 -31 -30 -50 -9 -19 -35
-56 -56 -82 -21 -25 -44 -59 -51 -75 -51 -120 -126 -208 -221 -259 -114 -61
-156 -74 -129 -41 13 15 36 82 56 162 39 160 68 229 123 302 28 37 53 112 53
157 l-1 31 -25 -30 c-83 -99 -194 -287 -194 -328 0 -7 -3 -17 -7 -21 -5 -4
-28 -46 -53 -94 -36 -67 -54 -91 -80 -104 -54 -27 -127 -23 -201 11 -50 23
-88 32 -175 40 -113 10 -145 22 -269 97 -22 13 -47 26 -55 30 -8 4 -39 17 -69
30 -33 15 -73 24 -105 24 -28 0 -82 5 -121 11 -38 7 -81 12 -95 13 -14 1 -36
7 -50 14 -14 6 -65 16 -114 21 -93 11 -166 1 -231 -33 -15 -8 -60 -18 -100
-21 -93 -9 -144 11 -201 81 -37 45 -54 72 -114 178 -87 156 -123 375 -85 516
8 30 15 73 15 95 0 45 -23 140 -38 158 -16 19 -41 116 -47 182 -3 33 -1 103 5
155 20 177 30 335 24 388 -4 29 -8 51 -11 48 -12 -12 -33 -125 -43 -234 -12
-133 -43 -256 -63 -249 -22 7 -55 121 -67 235 -18 160 -9 295 26 407 26 83 28
104 29 265 1 164 3 179 28 241 29 73 29 79 21 320 -5 137 -3 172 10 204 11 26
16 69 16 141 0 112 5 94 -90 354 -73 199 -72 194 -72 345 1 77 7 208 13 290 7
83 13 177 14 210 1 56 16 152 37 238 7 28 14 37 26 35 22 -4 54 -124 102 -388
6 -30 12 -120 15 -200 7 -202 13 -260 28 -305 8 -22 20 -40 27 -40 7 0 22 18
34 40 17 32 21 57 21 126 -1 47 -6 104 -12 125 -46 153 -56 219 -50 334 4 74
15 149 31 210 28 106 46 274 46 426 0 132 42 273 100 339 26 29 31 76 39 325
3 124 10 231 14 238 13 19 37 14 46 -10z m22941 -158 c0 -5 -4 -10 -10 -10 -5
0 -10 5 -10 10 0 6 5 10 10 10 6 0 10 -4 10 -10z m-14606 -245 c8 -22 -4 -46
-23 -43 -9 2 -17 15 -19 31 -3 21 1 27 16 27 11 0 22 -7 26 -15z m18120 -270
c16 -94 63 -270 93 -355 17 -47 36 -112 42 -145 20 -111 32 -200 31 -230 -1
-49 17 -198 28 -225 19 -47 40 -135 46 -185 3 -27 8 -73 11 -100 37 -330 36
-423 -4 -548 -45 -139 -39 -217 11 -159 34 38 50 88 58 176 8 96 38 255 50
269 15 17 21 -103 9 -160 -9 -46 -9 -88 1 -198 7 -77 10 -160 6 -185 -4 -25
-8 -126 -10 -225 -3 -188 -7 -209 -60 -349 -33 -86 -28 -125 25 -181 111 -118
180 -197 226 -255 108 -139 99 -162 -48 -124 -77 20 -105 9 -116 -45 -7 -38
-9 -228 -4 -376 2 -54 -1 -108 -9 -135 -7 -25 -14 -92 -14 -150 -1 -86 -4
-105 -16 -105 -8 0 -22 14 -31 32 -9 17 -23 42 -31 55 -13 20 -24 59 -44 156
-8 39 -24 23 -24 -25 0 -43 18 -137 40 -208 76 -249 89 -461 36 -580 -15 -33
-31 -67 -37 -75 -22 -36 -32 -69 -37 -123 -4 -54 -3 -59 14 -55 12 2 36 36 65
91 60 113 102 169 107 144 5 -23 -48 -176 -93 -272 -44 -95 -91 -227 -106
-300 -16 -79 -29 -92 -96 -101 -46 -5 -63 -3 -106 17 -29 13 -68 40 -87 59
-20 19 -56 53 -80 75 -82 74 -218 225 -235 263 -10 20 -26 48 -36 61 -11 13
-19 34 -19 47 0 45 -83 229 -107 238 -14 6 -15 -1 -10 -46 6 -58 42 -147 89
-220 47 -74 93 -247 70 -262 -6 -3 -22 11 -37 32 -15 20 -41 51 -57 67 -25 26
-69 91 -130 192 -10 15 -33 48 -52 73 -19 25 -59 86 -90 135 -57 94 -69 135
-80 289 -3 37 -12 69 -24 85 -10 14 -21 45 -24 68 -4 26 -20 61 -41 90 -51 71
-74 121 -91 203 -21 102 -32 135 -50 162 -9 12 -16 29 -16 37 0 12 -140 326
-172 385 -5 11 -21 58 -35 105 -14 47 -28 91 -32 96 -5 6 -22 54 -40 107 -55
167 -142 346 -207 428 -20 25 -40 46 -44 48 -15 6 -19 -73 -13 -234 4 -119 2
-179 -7 -226 -18 -81 -18 -240 -2 -454 11 -140 11 -190 1 -270 -20 -150 -17
-193 17 -260 29 -57 29 -59 28 -218 l-1 -161 -42 -123 c-42 -127 -53 -212 -27
-212 7 0 23 24 35 53 12 28 47 86 77 127 31 41 60 84 64 95 5 11 9 15 9 8 1
-7 -13 -50 -30 -95 -17 -46 -38 -101 -46 -123 -21 -60 -99 -210 -149 -291 -24
-39 -44 -75 -44 -81 0 -5 -11 -20 -24 -32 -14 -13 -30 -36 -37 -53 -9 -23 -17
-28 -38 -26 -23 3 -30 14 -62 98 -20 53 -39 111 -42 130 -9 43 -54 139 -77
165 -40 45 -53 120 -55 325 -1 153 -5 206 -19 248 -9 28 -21 52 -25 52 -5 0
-13 -21 -19 -47 -6 -27 -19 -79 -27 -118 -20 -84 -23 -212 -9 -315 6 -41 9
-83 6 -92 -7 -27 -43 -34 -56 -12 -21 35 -76 199 -76 226 0 15 -4 38 -9 51 -5
14 -13 85 -16 158 -5 92 -14 159 -30 214 -31 108 -39 179 -36 315 3 155 28
404 50 500 5 25 17 86 26 135 32 180 48 242 83 334 19 52 39 112 44 135 20 87
41 307 59 614 10 161 9 194 -5 267 -23 115 -27 213 -11 245 7 14 16 41 20 60
4 19 27 86 52 148 43 109 53 171 27 179 -13 4 -42 -56 -50 -105 -7 -44 -35
-104 -50 -109 -22 -7 -23 67 -3 144 10 42 19 95 19 119 0 55 33 160 59 188 16
17 23 45 32 126 6 58 18 125 26 149 8 25 21 101 29 170 8 69 18 129 23 134 18
18 72 -62 125 -183 82 -190 87 -208 95 -344 4 -68 12 -130 18 -138 6 -7 16
-33 23 -58 6 -25 25 -68 40 -97 16 -28 39 -80 50 -115 12 -34 33 -83 47 -108
62 -109 96 -195 146 -375 6 -22 17 -49 24 -60 7 -11 13 -29 13 -42 0 -12 16
-52 35 -90 19 -37 35 -76 35 -87 0 -36 44 -98 85 -118 46 -23 105 -76 105 -94
0 -31 85 -156 142 -208 35 -32 66 -61 70 -64 20 -18 68 -83 103 -140 22 -34
50 -77 62 -95 13 -17 30 -47 39 -66 9 -19 27 -49 40 -66 13 -17 31 -51 39 -75
8 -24 19 -48 24 -54 5 -6 12 -27 16 -46 4 -19 25 -69 46 -111 39 -78 79 -186
79 -214 0 -8 -6 -15 -13 -15 -14 0 -147 128 -147 141 0 4 -11 24 -24 43 -54
81 -147 159 -161 136 -7 -11 85 -192 115 -225 10 -11 21 -31 25 -45 4 -13 16
-36 25 -50 31 -44 113 -177 165 -266 28 -47 73 -113 100 -147 47 -58 50 -60
53 -36 2 15 -1 58 -6 95 -10 75 0 271 19 367 24 117 8 364 -30 490 -33 109
-41 156 -47 277 -3 78 -2 174 4 228 10 81 9 99 -8 151 -17 55 -69 157 -95 191
-7 8 -25 51 -41 95 -28 77 -29 86 -28 250 1 131 8 210 29 345 35 221 43 277
54 369 10 84 23 105 39 64 17 -46 22 -91 23 -233 1 -181 14 -317 34 -365 l17
-39 14 24 c7 14 13 33 14 43 0 10 13 57 30 103 36 103 46 210 31 324 -15 116
-3 205 43 309 20 46 50 103 67 127 66 96 79 141 88 296 6 104 14 153 27 181
25 52 47 45 58 -18z m-12414 4 c87 -10 168 -42 212 -82 14 -12 51 -44 82 -72
32 -27 68 -64 80 -81 128 -189 216 -334 216 -357 0 -60 -75 -24 -325 158 -68
49 -98 65 -123 65 -30 0 -32 -2 -20 -19 7 -10 58 -56 113 -102 109 -92 126
-108 230 -219 95 -100 118 -132 160 -220 32 -66 38 -91 51 -215 18 -169 10
-234 -40 -338 -44 -90 -118 -173 -249 -278 -56 -45 -118 -96 -137 -114 -19
-18 -48 -35 -63 -39 -17 -4 -36 -20 -49 -41 -11 -20 -28 -35 -38 -35 -26 0
-76 -45 -88 -79 -8 -23 -6 -34 9 -57 10 -16 19 -39 19 -52 0 -27 -48 -102 -65
-102 -15 0 -55 -50 -84 -107 -12 -24 -32 -50 -45 -59 -46 -29 -131 -58 -196
-65 -86 -9 -199 -35 -217 -51 -13 -10 -13 -14 2 -25 30 -21 103 -28 123 -11
20 18 97 38 144 38 18 0 58 -12 88 -27 48 -23 67 -26 150 -25 52 0 115 5 140
11 80 19 228 13 351 -13 138 -30 193 -53 240 -103 48 -50 56 -67 100 -208 21
-66 48 -147 60 -180 27 -71 31 -194 12 -390 -7 -66 -17 -181 -23 -255 -15
-196 -58 -382 -84 -361 -13 11 -21 116 -32 436 -5 150 -18 233 -41 279 -8 16
-21 49 -29 75 -7 25 -23 61 -35 80 -19 32 -22 33 -31 17 -15 -28 -4 -145 19
-196 60 -134 62 -210 7 -365 l-39 -110 0 -230 0 -230 -37 -74 c-22 -43 -38
-90 -38 -110 -1 -20 -5 -56 -11 -81 -34 -158 -51 -270 -57 -377 -7 -122 -7
-123 -40 -155 l-33 -33 -19 25 c-10 14 -22 36 -25 50 -4 13 -15 42 -25 65 -10
22 -21 56 -25 75 -4 19 -13 44 -19 55 -7 11 -19 38 -26 60 -7 22 -18 49 -24
60 -7 11 -27 63 -45 115 -30 87 -33 107 -38 260 -9 293 -9 315 0 340 8 22 59
214 71 265 3 11 15 60 27 108 27 109 23 180 -15 261 -22 46 -29 79 -33 151
l-6 93 -61 12 c-34 6 -98 22 -142 36 -120 35 -172 32 -269 -16 -99 -49 -156
-52 -260 -14 -102 37 -208 74 -216 74 -4 0 -12 -28 -19 -63 -11 -63 -7 -135
20 -297 19 -121 5 -262 -34 -323 -23 -36 -46 -143 -46 -213 0 -48 6 -79 24
-117 21 -45 24 -62 20 -132 -5 -86 -26 -165 -56 -205 -23 -32 -48 -128 -48
-188 0 -26 -12 -110 -26 -187 -14 -77 -29 -165 -33 -195 -4 -30 -24 -90 -44
-133 -31 -67 -40 -78 -59 -75 -23 3 -26 13 -58 193 -16 90 -30 257 -35 420 -6
153 -18 239 -36 251 -5 3 -9 12 -9 21 0 8 -6 29 -14 46 -55 120 -72 199 -80
361 -7 130 -23 206 -62 294 -48 107 -53 136 -55 352 -1 127 3 218 10 240 6 19
11 59 11 87 0 70 -23 72 -43 6 -8 -27 -22 -66 -31 -87 -13 -31 -17 -87 -21
-260 -3 -121 -8 -222 -10 -225 -12 -11 -54 44 -64 83 -19 75 -24 257 -12 416
7 85 14 184 16 220 16 224 2 559 -30 721 -8 41 -24 127 -35 193 -11 65 -27
146 -34 180 -8 33 -24 115 -36 182 -21 112 -22 131 -11 260 6 76 16 157 21
179 5 22 16 73 23 114 7 41 18 76 24 78 20 7 43 -53 53 -134 6 -44 7 -146 4
-235 -5 -114 -4 -169 6 -202 13 -49 35 -75 49 -60 5 5 14 97 19 204 13 237 3
516 -21 573 -24 55 -67 106 -210 246 -165 163 -230 215 -327 261 -8 4 -16 17
-18 28 -3 16 3 23 25 27 15 4 38 10 50 15 12 5 35 5 53 0 17 -5 37 -7 45 -4 8
3 47 -2 87 -10 118 -26 305 -10 337 28 22 27 164 89 213 94 26 2 75 -1 108 -7
96 -19 253 -15 350 9 47 12 141 26 210 31 69 5 183 17 253 25 128 16 254 30
292 33 11 0 58 -4 105 -10z m8873 -30 c2 -2 17 -22 33 -44 71 -94 84 -129 90
-254 3 -64 12 -136 20 -161 13 -42 65 -144 119 -235 36 -59 53 -157 66 -370
14 -231 10 -316 -21 -420 -19 -67 -23 -100 -22 -200 3 -194 6 -238 18 -242 5
-2 32 52 58 119 26 67 77 184 112 260 35 76 64 142 64 147 0 5 6 14 14 20 25
21 38 -23 38 -123 1 -93 -19 -164 -57 -206 -37 -41 -46 -157 -30 -395 5 -87 3
-128 -10 -195 -33 -166 -36 -186 -30 -260 8 -98 33 -232 51 -275 8 -19 14 -46
14 -61 0 -26 65 -258 78 -279 4 -5 15 -39 25 -75 10 -36 27 -96 38 -135 53
-180 61 -236 62 -400 1 -129 -2 -167 -15 -198 -28 -63 -47 -203 -52 -392 -5
-175 -9 -215 -26 -215 -14 0 -39 93 -39 150 -1 30 -6 120 -12 200 -6 80 -13
204 -16 275 -3 72 -9 134 -14 140 -5 5 -9 18 -9 30 0 27 -62 156 -84 174 -13
11 -19 12 -29 2 -17 -17 -13 -202 6 -274 28 -102 39 -211 32 -309 -4 -51 -8
-151 -9 -223 -1 -124 -2 -132 -28 -170 -22 -32 -31 -63 -43 -149 -18 -125 -34
-156 -119 -223 -42 -32 -65 -61 -90 -111 -24 -47 -47 -77 -74 -96 -38 -26 -42
-27 -69 -13 -38 20 -58 43 -84 102 -20 43 -23 69 -25 180 -3 139 -10 195 -29
235 -19 37 -35 124 -41 220 -3 47 -7 105 -9 130 -6 78 -35 282 -50 355 -8 39
-19 93 -25 120 -16 76 -39 309 -40 402 0 63 -3 81 -13 77 -16 -6 -113 -152
-133 -201 -12 -28 -13 -44 -5 -72 5 -20 18 -66 29 -103 19 -68 18 -112 -7
-213 -7 -29 -6 -67 6 -141 18 -112 15 -134 -21 -134 -27 0 -34 18 -74 200 -39
176 -43 195 -74 325 -30 130 -30 130 -19 270 38 482 39 831 1 904 -22 45 -84
239 -99 312 -20 101 -40 364 -36 481 3 88 10 133 27 180 31 88 31 252 0 403
-23 113 -37 290 -24 309 6 10 14 41 40 156 15 62 45 131 56 127 18 -6 11 -192
-8 -219 -11 -16 -16 -46 -16 -105 0 -95 31 -207 85 -307 39 -72 65 -155 65
-207 0 -21 4 -40 9 -44 14 -8 28 46 46 170 8 61 20 140 25 176 5 37 7 138 4
225 l-6 159 32 90 c18 50 50 122 71 160 21 39 43 93 49 121 6 27 44 112 85
188 41 76 75 144 75 150 0 7 2 15 5 18 6 5 84 -6 88 -13z m-11927 -54 c23 -14
45 -33 48 -43 11 -33 93 -72 174 -83 111 -15 191 -37 225 -62 87 -66 134 -119
174 -199 37 -73 45 -98 58 -202 15 -118 12 -358 -5 -381 -4 -5 -13 -35 -20
-65 -6 -30 -21 -73 -32 -95 -25 -49 -126 -213 -146 -237 -14 -17 -13 -82 3
-169 10 -51 -11 -114 -48 -149 -18 -16 -37 -30 -42 -30 -10 0 -43 58 -69 123
-22 55 -44 185 -52 310 -5 82 -10 107 -20 107 -18 0 -32 -37 -40 -106 -11 -87
-59 -115 -76 -44 -5 19 -14 53 -19 74 -7 25 -30 60 -65 96 -40 42 -60 73 -75
120 -19 56 -26 64 -63 80 -22 10 -81 26 -130 36 -84 16 -93 16 -181 0 -100
-19 -193 -16 -270 9 -46 16 -148 35 -182 35 -13 0 -32 -9 -43 -20 -17 -17 -20
-33 -20 -112 0 -101 13 -155 60 -255 41 -86 45 -128 27 -269 -9 -65 -16 -174
-16 -242 -1 -84 -6 -137 -17 -171 -32 -100 -5 -145 96 -155 30 -3 78 -8 105
-11 328 -31 433 -64 558 -175 54 -49 87 -113 118 -230 16 -65 13 -312 -6 -380
-32 -117 -38 -171 -26 -235 15 -84 14 -123 -5 -192 -37 -132 -41 -166 -31
-246 12 -96 -1 -150 -49 -206 -39 -45 -121 -99 -165 -108 -38 -7 -38 12 1 110
36 90 37 134 10 283 -48 262 -77 379 -109 430 -28 45 -90 53 -186 23 -103 -32
-182 -35 -251 -10 -90 34 -101 12 -63 -126 30 -109 22 -204 -27 -321 -20 -48
-45 -112 -55 -142 -38 -107 -23 -235 19 -170 10 14 29 36 43 50 15 14 37 45
49 70 21 41 22 50 12 130 l-10 85 32 45 c42 58 68 60 78 5 17 -97 2 -268 -28
-327 -29 -55 -43 -162 -33 -250 5 -44 16 -95 23 -112 21 -46 28 -89 30 -186 2
-84 4 -90 36 -132 80 -102 189 -178 257 -178 22 0 162 45 218 70 22 10 58 21
80 25 21 4 52 13 67 21 15 8 40 14 55 14 29 0 72 23 86 47 4 7 19 13 32 13 29
0 82 59 122 136 24 46 26 57 15 74 -11 18 -10 20 12 20 34 0 59 40 80 127 13
55 14 77 6 93 -10 19 -13 19 -39 5 -16 -8 -40 -29 -55 -47 -14 -18 -35 -42
-46 -53 -23 -24 -100 -163 -100 -180 0 -7 -16 -27 -36 -44 -30 -27 -43 -32
-76 -29 -25 2 -45 10 -51 20 -11 17 -11 17 69 115 18 22 29 52 36 100 12 75
50 177 80 209 24 27 45 95 54 176 11 112 39 199 88 272 25 38 48 83 52 100 3
17 10 36 15 42 10 12 25 78 38 169 5 33 19 116 31 185 12 69 25 153 30 188 8
62 23 96 63 140 42 46 52 18 32 -96 -17 -98 -11 -156 32 -275 13 -40 33 -106
44 -147 10 -41 27 -100 38 -130 55 -157 107 -342 137 -487 15 -70 15 -97 6
-185 -6 -57 -14 -141 -18 -188 -7 -94 -28 -153 -69 -190 -15 -14 -43 -54 -62
-90 -64 -121 -88 -157 -153 -235 -36 -43 -74 -90 -85 -106 -11 -16 -32 -38
-48 -49 -15 -12 -48 -52 -74 -88 -26 -37 -52 -72 -58 -78 -5 -7 -26 -32 -45
-57 -97 -125 -294 -161 -458 -85 -33 15 -64 20 -140 20 -90 0 -106 -3 -212
-43 -112 -41 -118 -42 -241 -43 -125 -1 -127 -1 -170 29 -24 17 -69 44 -99 59
-65 34 -172 111 -218 158 -88 89 -125 180 -173 423 -26 134 -24 164 12 248 55
127 62 173 64 397 1 196 8 273 26 295 4 6 11 42 14 80 6 66 5 69 -10 50 -9
-11 -18 -29 -20 -40 -2 -11 -17 -90 -34 -177 -17 -86 -31 -159 -31 -162 0 -3
-9 -6 -20 -6 -18 0 -20 7 -21 88 -1 144 -25 280 -77 437 -32 94 -33 192 -7
345 9 52 22 131 30 175 7 44 20 123 30 175 21 119 16 217 -19 370 -14 63 -35
153 -46 200 -10 47 -29 126 -41 175 -16 67 -21 116 -20 194 1 57 4 107 6 111
2 4 9 65 15 136 13 152 2 273 -31 341 -24 50 -46 65 -109 73 -36 4 -45 9 -45
25 0 20 27 37 76 49 30 7 116 -44 151 -90 12 -16 28 -33 35 -39 21 -17 93
-164 114 -232 19 -60 20 -82 14 -242 -6 -150 -5 -179 8 -196 20 -26 30 -15 50
60 19 70 24 238 8 306 -6 25 -24 75 -41 110 -36 77 -40 150 -11 208 20 38 17
94 -7 124 -5 7 -17 47 -27 89 -9 42 -22 81 -28 86 -21 16 -150 83 -192 99 -22
9 -71 18 -110 22 -67 6 -70 7 -73 33 -2 20 3 30 20 39 13 6 32 19 43 29 11 10
49 33 85 52 36 19 97 53 137 76 40 23 77 42 82 42 5 0 50 20 99 45 49 25 94
45 101 45 6 0 29 9 49 19 47 24 108 33 241 36 58 1 165 6 238 10 l131 8 83
-39 c95 -45 142 -48 290 -21 91 17 140 14 272 -17 74 -17 117 -20 117 -8 0 15
-116 119 -156 139 -44 23 -91 20 -189 -13 -27 -9 -84 -20 -125 -24 -64 -7 -83
-6 -133 12 -66 24 -127 83 -127 123 0 32 27 33 86 4 85 -41 229 -44 299 -6 33
18 117 35 174 36 41 1 65 -5 97 -24z m18065 -4 c46 -31 87 -73 206 -212 96
-112 172 -218 290 -403 68 -107 163 -321 163 -366 0 -20 53 -122 87 -166 32
-43 42 -83 44 -174 1 -81 -9 -109 -83 -223 -30 -46 -32 -55 -40 -185 -12 -210
-27 -323 -46 -357 -26 -43 -46 -39 -50 10 -5 87 -35 294 -52 360 -10 39 -21
95 -25 125 -10 75 -24 94 -105 135 -100 50 -134 84 -165 163 -14 37 -31 77
-38 89 -13 23 -91 94 -169 153 -25 19 -64 64 -87 100 -57 90 -105 140 -134
140 -25 0 -77 -34 -77 -51 0 -5 -16 -31 -34 -57 -19 -26 -44 -68 -54 -93 -11
-24 -27 -50 -36 -58 -9 -7 -16 -19 -16 -25 0 -6 -45 -87 -100 -180 -92 -154
-122 -216 -106 -216 4 0 57 50 118 110 61 61 114 110 118 110 4 0 28 21 52 48
51 53 84 76 93 63 18 -30 -79 -274 -146 -366 -32 -44 -99 -173 -99 -191 0 -3
-12 -34 -27 -68 -50 -114 -106 -190 -242 -331 -37 -38 -90 -104 -117 -145
l-49 -75 -1 -145 c0 -154 -8 -195 -59 -294 -30 -60 -32 -124 -6 -182 34 -75
109 -328 155 -519 44 -187 95 -344 137 -428 33 -63 40 -105 22 -123 -14 -13
-17 -13 -35 3 -11 10 -40 61 -65 113 -84 179 -190 330 -194 278 -6 -75 17
-170 64 -268 17 -36 41 -94 52 -130 13 -40 28 -69 40 -75 13 -6 21 -21 22 -40
2 -43 41 -191 63 -239 10 -23 21 -50 24 -62 10 -33 51 -47 86 -29 16 8 35 13
42 10 17 -7 136 68 144 90 4 8 15 15 26 15 11 0 38 15 60 33 77 61 230 212
245 242 8 17 26 41 38 55 30 33 95 159 95 186 0 11 11 34 23 52 13 17 31 48
39 69 28 65 107 315 124 388 33 147 48 122 34 -57 -7 -89 -20 -166 -39 -233
-16 -55 -35 -127 -42 -160 -7 -33 -19 -69 -26 -81 -16 -26 -42 -173 -32 -180
5 -3 19 7 31 22 13 15 36 43 52 61 16 19 63 53 104 75 67 37 79 49 121 115 25
41 62 100 82 131 20 32 40 68 44 82 4 14 14 36 22 48 8 13 17 47 19 75 4 44 1
59 -24 101 -43 70 -241 285 -269 293 -21 5 -37 -6 -96 -65 -119 -116 -191
-152 -342 -168 -33 -3 -73 -10 -90 -14 -234 -68 -250 -77 -242 -142 21 -160
21 -158 0 -158 -73 0 -203 321 -206 510 -2 72 2 93 22 135 14 28 31 55 38 60
7 6 27 31 45 56 31 43 132 135 206 187 50 35 119 62 199 77 68 13 131 45 183
92 106 97 292 140 416 98 25 -8 50 -15 56 -15 7 0 31 -9 54 -20 43 -21 111
-89 204 -204 30 -37 90 -104 133 -148 42 -44 77 -84 77 -89 0 -4 18 -29 40
-54 79 -91 46 -97 -108 -20 -105 52 -132 62 -132 49 0 -9 40 -66 64 -91 12
-12 37 -44 56 -73 81 -119 164 -220 240 -295 121 -119 180 -179 180 -186 0
-12 -77 -18 -111 -9 -18 6 -53 10 -76 10 -50 0 -66 -18 -89 -100 -9 -30 -24
-68 -34 -85 -10 -16 -27 -59 -40 -95 -12 -36 -37 -96 -55 -135 -18 -38 -54
-114 -79 -168 -25 -55 -59 -111 -77 -128 -17 -16 -54 -58 -83 -93 -28 -35 -91
-108 -141 -163 -132 -145 -217 -243 -240 -272 -11 -15 -48 -55 -82 -90 -34
-35 -65 -72 -68 -82 -3 -9 -21 -26 -39 -37 -21 -13 -39 -34 -47 -56 -9 -24
-19 -36 -32 -36 -11 0 -38 -17 -61 -37 -57 -52 -61 -22 -6 55 61 84 130 194
130 207 0 6 13 24 29 39 16 16 35 42 41 60 6 17 17 45 25 61 46 105 56 155 30
155 -9 0 -41 -19 -72 -42 -31 -24 -75 -56 -97 -73 -23 -16 -52 -40 -66 -52
-14 -12 -65 -57 -114 -99 -49 -43 -119 -113 -155 -156 -83 -97 -129 -129 -213
-152 -148 -40 -248 18 -411 236 -15 20 -27 40 -27 43 0 5 -35 68 -123 220 -6
11 -22 36 -34 56 -13 19 -23 42 -23 50 0 16 -23 71 -112 272 -12 26 -25 47
-30 47 -13 0 0 -58 49 -220 24 -80 50 -165 57 -190 14 -45 41 -116 77 -198 23
-51 24 -72 4 -72 -8 0 -15 5 -15 10 0 6 -9 19 -19 29 -23 23 -31 36 -108 192
-34 68 -76 167 -93 219 -17 52 -40 104 -50 115 -18 20 -27 47 -50 155 -13 57
-48 129 -106 213 -19 27 -39 68 -45 90 -7 23 -22 74 -35 114 -13 39 -30 113
-39 165 -8 51 -20 118 -25 149 -35 198 -42 566 -12 664 5 17 10 66 11 110 4
149 15 197 94 418 20 54 43 140 52 190 17 98 21 118 55 242 12 44 30 114 40
155 10 41 25 91 33 110 8 19 36 94 62 165 43 119 136 321 203 438 75 130 193
287 290 383 56 56 105 97 108 92 8 -12 -3 -39 -93 -227 -40 -84 -73 -158 -73
-163 0 -9 -25 -62 -71 -150 -5 -10 -9 -23 -9 -29 0 -31 95 92 140 182 12 24
28 51 35 59 7 8 26 38 41 65 116 204 184 296 312 420 158 154 177 165 267 165
46 -1 77 -6 89 -15 11 -8 28 -15 39 -15 10 0 21 -8 24 -18 2 -10 17 -26 33
-37 35 -23 82 -86 128 -169 41 -74 114 -162 141 -169 38 -10 45 18 18 76 -21
46 -49 87 -170 251 -65 88 -103 134 -133 163 -34 32 -46 73 -21 73 8 0 34 -13
58 -29z m-21281 -144 c387 6 364 9 515 -55 131 -56 225 -138 311 -270 35 -53
77 -115 95 -137 41 -52 92 -154 85 -171 -4 -11 -15 -10 -58 5 -97 34 -148 66
-302 191 -52 43 -79 57 -123 62 -31 5 -43 3 -43 -7 0 -13 62 -65 78 -65 11 0
159 -144 243 -235 30 -33 90 -94 133 -135 128 -121 128 -123 137 -316 7 -143
6 -174 -10 -234 -25 -95 -101 -200 -192 -264 -37 -26 -77 -59 -90 -72 -12 -13
-29 -24 -37 -24 -7 0 -60 -27 -116 -60 -57 -33 -107 -60 -113 -60 -5 0 -29
-13 -51 -30 -23 -16 -45 -30 -48 -30 -4 0 -25 -14 -48 -30 -23 -17 -56 -41
-75 -53 -19 -12 -50 -45 -70 -74 -57 -82 -184 -188 -277 -232 -58 -28 -87 -47
-100 -70 -18 -31 -67 -61 -99 -61 -10 0 -36 -5 -59 -11 -22 -6 -57 -14 -76
-19 -118 -29 -151 -43 -173 -74 -41 -55 -85 -190 -73 -221 3 -9 2 -24 -3 -34
-5 -9 -10 -107 -11 -216 -2 -201 -7 -242 -52 -420 -11 -44 -26 -108 -34 -142
-20 -91 -46 -328 -38 -357 4 -18 -3 -43 -25 -87 -28 -52 -31 -66 -25 -107 4
-26 11 -58 16 -72 20 -52 27 -131 17 -188 -11 -63 -28 -112 -38 -112 -4 0 -26
-23 -49 -51 -31 -38 -51 -79 -77 -158 -78 -238 -98 -281 -131 -281 -8 0 -25
18 -40 39 -14 22 -32 42 -40 45 -8 3 -14 14 -14 25 0 11 -4 23 -10 26 -15 9
-80 111 -80 125 0 8 -22 59 -49 114 -70 143 -85 214 -87 426 -1 133 2 183 13
210 14 32 16 33 26 17 7 -10 18 -26 25 -35 11 -15 12 -12 7 18 -4 19 -9 73
-12 120 -4 70 -1 97 17 149 11 35 28 70 36 78 22 22 22 96 -1 148 -73 169 -85
321 -40 530 8 39 17 93 20 120 9 74 -11 320 -33 406 -11 40 -25 106 -31 144
-7 39 -16 88 -21 110 -29 136 -34 194 -34 360 1 153 5 199 27 305 27 131 34
192 42 375 3 61 9 166 14 235 17 242 -2 279 -255 508 -93 84 -182 159 -199
167 -82 42 -145 89 -133 101 10 9 80 26 108 26 14 0 52 -6 85 -11 33 -6 85
-15 115 -21 30 -5 98 -12 150 -15 101 -6 165 8 254 54 57 30 176 54 243 48 32
-2 85 -12 118 -22 90 -26 203 -17 275 21 75 39 100 43 285 35 88 -3 225 -5
305 -4z m-3914 -42 c32 -4 74 -16 92 -27 41 -25 131 -21 252 11 73 20 99 22
185 16 55 -3 181 -9 280 -14 156 -6 186 -11 229 -30 35 -17 76 -25 145 -30
113 -7 145 -22 161 -78 34 -113 52 -229 57 -376 7 -190 -3 -237 -82 -402 -97
-203 -95 -197 -86 -235 4 -20 13 -45 19 -57 7 -12 12 -44 12 -71 0 -39 -6 -58
-31 -91 -44 -61 -63 -54 -115 42 -41 77 -66 169 -95 345 -7 40 -17 76 -22 79
-13 8 -27 -17 -27 -52 0 -33 -19 -100 -36 -128 -14 -25 -41 -12 -49 24 -4 16
-11 31 -16 34 -5 4 -9 19 -9 34 0 20 -15 41 -58 82 -35 32 -73 82 -93 120 -48
90 -74 102 -229 102 -100 0 -125 -4 -162 -22 -36 -17 -62 -21 -139 -21 -52 1
-121 7 -154 15 -70 17 -148 19 -175 5 -61 -33 -41 -230 36 -345 57 -87 65
-122 71 -320 8 -281 8 -335 -1 -417 l-9 -76 34 -18 c27 -14 60 -19 159 -20
255 -4 356 -14 439 -43 178 -62 256 -148 316 -346 27 -87 27 -94 22 -270 -3
-99 -10 -193 -16 -208 -9 -23 -7 -42 9 -94 24 -79 25 -145 4 -226 -16 -57 -16
-72 -1 -185 11 -91 13 -130 5 -155 -30 -90 -46 -118 -85 -146 -56 -40 -122
-73 -133 -66 -16 10 -12 49 9 96 31 72 35 162 11 244 -12 39 -32 111 -45 162
-13 50 -33 113 -44 139 -12 25 -21 52 -21 58 0 7 -11 27 -25 46 -14 19 -25 41
-25 50 0 9 -9 25 -20 35 -25 23 -95 16 -200 -21 -73 -25 -114 -28 -255 -21
-38 2 -40 1 -43 -30 -2 -17 8 -60 22 -95 31 -80 35 -94 46 -162 8 -47 6 -63
-10 -99 -11 -23 -20 -53 -20 -66 0 -13 -9 -39 -21 -58 -26 -42 -50 -236 -31
-255 21 -21 62 20 99 99 l36 74 -18 79 c-20 86 -16 109 29 164 34 43 51 30 71
-55 18 -82 15 -145 -16 -301 -10 -53 -19 -118 -19 -145 1 -52 41 -215 59 -237
6 -7 17 -61 25 -119 10 -76 20 -115 35 -136 30 -42 109 -109 150 -128 20 -9
49 -25 64 -36 42 -29 122 -16 207 32 55 31 204 97 253 112 92 28 212 136 254
229 64 141 71 162 78 233 8 71 1 107 -20 107 -29 0 -102 -105 -170 -242 l-70
-143 -42 -9 c-72 -15 -95 23 -48 79 38 45 56 93 61 165 5 59 43 179 64 205 12
15 37 160 48 275 7 79 15 110 49 185 57 124 70 200 88 500 11 176 21 269 31
290 21 45 61 91 70 82 5 -5 9 -66 10 -135 1 -135 2 -138 74 -316 17 -44 38
-89 45 -100 8 -12 26 -52 40 -91 15 -38 51 -131 81 -206 30 -74 54 -140 54
-146 0 -15 59 -193 74 -222 12 -24 46 -190 62 -306 10 -73 6 -304 -6 -381 -12
-77 -46 -133 -124 -209 -29 -27 -73 -74 -98 -104 -51 -62 -78 -65 -78 -9 0 42
23 76 97 147 67 64 93 111 93 171 0 40 -25 110 -39 110 -3 0 -17 -24 -30 -52
-32 -70 -113 -200 -167 -268 -76 -95 -156 -214 -167 -245 -6 -16 -43 -67 -83
-111 -94 -104 -127 -118 -274 -118 -65 0 -124 6 -155 16 -39 11 -71 13 -143 7
-86 -7 -141 -25 -212 -68 -8 -5 -42 -21 -76 -36 -51 -23 -74 -27 -155 -27
-105 -1 -167 8 -189 27 -23 20 -130 65 -155 65 -12 0 -38 15 -58 33 -20 17
-54 45 -77 62 -23 16 -66 63 -96 103 -32 42 -69 80 -89 89 -60 29 -96 131
-119 335 -5 43 -3 51 24 78 33 33 43 66 63 193 15 100 14 185 -4 378 -11 121
-10 143 4 202 19 75 22 117 7 117 -5 0 -13 -12 -16 -27 -4 -16 -10 -32 -14
-38 -4 -5 -11 -53 -15 -105 -13 -180 -19 -215 -35 -215 -11 0 -17 24 -27 103
-6 57 -16 109 -21 115 -4 7 -13 30 -19 52 -35 128 -49 169 -84 252 l-39 93 0
139 c0 77 5 175 11 218 6 43 12 157 13 253 1 164 -1 181 -27 270 -15 52 -32
116 -38 142 -6 26 -21 63 -34 82 -12 18 -26 53 -30 77 -4 24 -13 59 -21 77
-44 107 -55 183 -58 407 -3 242 -16 337 -59 422 -21 40 -34 54 -67 67 -22 9
-54 16 -71 16 -42 0 -36 29 12 54 34 19 36 19 84 0 40 -15 89 -50 158 -112 27
-24 109 -176 126 -231 28 -94 33 -132 36 -256 2 -110 16 -165 41 -165 16 0 28
88 27 205 -1 99 -29 211 -67 268 -45 67 -58 157 -30 222 18 43 13 70 -20 119
-13 19 -26 53 -30 75 -3 22 -18 53 -32 71 -29 34 -92 70 -123 70 -11 0 -22 4
-25 9 -13 20 -112 43 -174 39 -51 -2 -67 0 -75 13 -18 29 19 64 214 202 46 32
240 151 289 176 100 52 171 81 202 81 53 0 188 19 223 31 35 13 195 38 211 34
6 -2 37 -6 70 -10z m29932 -206 c-3 -21 -9 -24 -45 -26 -78 -3 -83 43 -6 57
45 8 56 1 51 -31z m-41298 -459 c0 -5 -5 -10 -11 -10 -5 0 -7 5 -4 10 3 6 8
10 11 10 2 0 4 -4 4 -10z m5670 -10 c0 -5 -4 -10 -10 -10 -5 0 -10 5 -10 10 0
6 5 10 10 10 6 0 10 -4 10 -10z m29235 -330 c3 -5 1 -10 -4 -10 -6 0 -11 5
-11 10 0 6 2 10 4 10 3 0 8 -4 11 -10z m-26567 -657 c-3 -31 -34 -44 -44 -19
-7 19 12 46 33 46 10 0 13 -9 11 -27z m-6128 -113 c13 -8 13 -11 -2 -27 -21
-20 -45 -5 -35 21 7 18 16 20 37 6z m20540 -90 c0 -6 -6 -13 -14 -16 -8 -3
-16 -14 -19 -25 -6 -23 -42 -26 -51 -3 -11 28 -7 46 9 40 8 -3 22 -9 30 -12
10 -4 15 0 15 10 0 9 7 16 15 16 8 0 15 -5 15 -10z m-21360 -13 c0 -8 -3 -17
-7 -20 -9 -9 -34 13 -27 24 8 14 34 11 34 -4z m20155 -182 c0 -14 -8 -21 -27
-23 -30 -4 -38 14 -16 36 18 18 43 10 43 -13z m20456 -68 c-1 -12 -15 -9 -19
4 -3 6 1 10 8 8 6 -3 11 -8 11 -12z m-18388 -293 c-4 -10 -9 -12 -15 -6 -12
12 -1 35 12 27 5 -3 6 -13 3 -21z m-13 -104 c0 -5 -5 -10 -11 -10 -5 0 -7 5
-4 10 3 6 8 10 11 10 2 0 4 -4 4 -10z m-11140 -567 c0 -26 -3 -34 -11 -26 -9
9 -3 63 7 63 2 0 4 -17 4 -37z m9040 -38 c0 -16 -27 -32 -37 -22 -3 4 -3 13 0
22 8 20 37 20 37 0z m-40 -150 c0 -8 -4 -15 -10 -15 -5 0 -10 7 -10 15 0 8 5
15 10 15 6 0 10 -7 10 -15z m-18566 -148 c18 -13 18 -14 1 -21 -16 -6 -65 16
-65 29 0 11 47 4 64 -8z m9130 -2 c-6 -16 -24 -21 -24 -7 0 11 11 22 21 22 5
0 6 -7 3 -15z m28396 -21 c0 -8 -5 -12 -10 -9 -6 4 -8 11 -5 16 9 14 15 11 15
-7z m-37420 -35 c0 -5 -6 -9 -13 -9 -17 0 -49 34 -41 43 8 7 54 -22 54 -34z
m2261 -242 c-8 -8 -11 -7 -11 4 0 20 13 34 18 19 3 -7 -1 -17 -7 -23z m32667
-13 c2 -28 2 -28 -13 -10 -18 24 -20 49 -2 44 6 -3 13 -18 15 -34z m-5008 5
c0 -24 -23 -21 -28 4 -2 10 3 17 12 17 10 0 16 -9 16 -21z m-3040 -79 c0 -5
-4 -10 -10 -10 -5 0 -10 5 -10 10 0 6 5 10 10 10 6 0 10 -4 10 -10z m-6483
-162 c-3 -8 -6 -5 -6 6 -1 11 2 17 5 13 3 -3 4 -12 1 -19z m-12777 -17 c0 -6
-4 -13 -10 -16 -5 -3 -10 1 -10 9 0 9 5 16 10 16 6 0 10 -4 10 -9z m21872
-163 c-7 -7 -12 -8 -12 -2 0 14 12 26 19 19 2 -3 -1 -11 -7 -17z m13138 -464
c0 -8 -5 -12 -10 -9 -6 4 -8 11 -5 16 9 14 15 11 15 -7z m-13640 -4 c0 -5 -4
-10 -10 -10 -5 0 -10 5 -10 10 0 6 5 10 10 10 6 0 10 -4 10 -10z m7970 -194
c0 -8 -4 -17 -9 -21 -12 -7 -24 12 -16 25 9 15 25 12 25 -4z m-12530 -256 c0
-5 -4 -10 -10 -10 -5 0 -10 5 -10 10 0 6 5 10 10 10 6 0 10 -4 10 -10z m7987
-132 c-3 -7 -5 -2 -5 12 0 14 2 19 5 13 2 -7 2 -19 0 -25z m-1895 -50 c-15
-15 -26 -4 -18 18 5 13 9 15 18 6 9 -9 9 -15 0 -24z m-11102 7 c0 -8 -4 -15
-10 -15 -5 0 -10 7 -10 15 0 8 5 15 10 15 6 0 10 -7 10 -15z m-5200 -155 c0
-5 -5 -10 -11 -10 -5 0 -7 5 -4 10 3 6 8 10 11 10 2 0 4 -4 4 -10z m7134 -75
c-4 -8 -10 -15 -15 -15 -4 0 -6 7 -3 15 4 8 10 15 15 15 4 0 6 -7 3 -15z
m8491 -14 c3 -5 1 -12 -5 -16 -5 -3 -10 1 -10 9 0 18 6 21 15 7z m-13571 -66
c-4 -8 -8 -15 -10 -15 -2 0 -4 7 -4 15 0 8 4 15 10 15 5 0 7 -7 4 -15z m4355
-227 c0 -28 -2 -30 -9 -13 -12 28 -12 45 0 45 6 0 10 -15 9 -32z m13261 -68
c0 -5 -4 -10 -10 -10 -5 0 -10 5 -10 10 0 6 5 10 10 10 6 0 10 -4 10 -10z
m-13260 -70 c0 -33 -4 -60 -10 -60 -11 0 -13 62 -4 98 10 36 14 26 14 -38z
m-7610 -99 c12 -23 3 -51 -15 -51 -20 0 -28 18 -21 46 8 29 22 31 36 5z
m12960 -386 c0 -8 -4 -15 -10 -15 -5 0 -10 7 -10 15 0 8 5 15 10 15 6 0 10 -7
10 -15z m-23300 -15 c0 -5 -5 -10 -11 -10 -5 0 -7 5 -4 10 3 6 8 10 11 10 2 0
4 -4 4 -10z m14310 -20 c0 -5 -4 -10 -10 -10 -5 0 -10 5 -10 10 0 6 5 10 10
10 6 0 10 -4 10 -10z m13050 -74 c0 -8 -4 -18 -10 -21 -5 -3 -10 3 -10 14 0
12 5 21 10 21 6 0 10 -6 10 -14z m-5430 -291 c0 -8 -4 -15 -10 -15 -5 0 -10 7
-10 15 0 8 5 15 10 15 6 0 10 -7 10 -15z m3336 -170 c4 -8 3 -22 0 -31 -5 -13
-9 -14 -21 -4 -8 7 -15 21 -15 31 0 23 28 25 36 4z m3074 -55 c0 -5 -7 -10
-16 -10 -8 0 -12 5 -9 10 3 6 10 10 16 10 5 0 9 -4 9 -10z m-34522 -224 c3
-12 -1 -17 -10 -14 -7 3 -15 13 -16 22 -3 12 1 17 10 14 7 -3 15 -13 16 -22z
m7457 -96 c3 -5 -1 -10 -10 -10 -9 0 -13 5 -10 10 3 6 8 10 10 10 2 0 7 -4 10
-10z m18255 -200 c0 -5 -4 -10 -10 -10 -5 0 -10 5 -10 10 0 6 5 10 10 10 6 0
10 -4 10 -10z m14860 -165 c0 -8 -7 -15 -15 -15 -26 0 -18 20 13 29 1 1 2 -6
2 -14z m-20 -359 c0 -8 -4 -18 -10 -21 -5 -3 -10 3 -10 14 0 12 5 21 10 21 6
0 10 -6 10 -14z m2460 -318 c0 -16 -3 -19 -11 -11 -6 6 -8 16 -5 22 11 17 16
13 16 -11z m-26963 -60 c-3 -8 -6 -5 -6 6 -1 11 2 17 5 13 3 -3 4 -12 1 -19z
m20013 -8 c0 -5 -2 -10 -4 -10 -3 0 -8 5 -11 10 -3 6 -1 10 4 10 6 0 11 -4 11
-10z m-7430 -45 c0 -8 -9 -15 -20 -15 -20 0 -26 11 -13 23 12 13 33 7 33 -8z
m-21967 -140 c-3 -8 -9 -15 -14 -15 -10 0 -12 24 -3 33 11 11 24 -3 17 -18z
m6343 -91 c-4 -9 -9 -15 -11 -12 -3 3 -3 13 1 22 4 9 9 15 11 12 3 -3 3 -13
-1 -22z m24071 -16 c-3 -7 -5 -2 -5 12 0 14 2 19 5 13 2 -7 2 -19 0 -25z
m-23527 -14 c0 -13 -4 -24 -10 -24 -5 0 -10 14 -10 31 0 17 4 28 10 24 6 -3
10 -17 10 -31z m97 4 c-3 -8 -6 -5 -6 6 -1 11 2 17 5 13 3 -3 4 -12 1 -19z
m-687 -299 c0 -10 -4 -19 -10 -19 -5 0 -10 12 -10 26 0 14 4 23 10 19 6 -3 10
-15 10 -26z m660 -29 c0 -5 -7 -10 -15 -10 -8 0 -15 5 -15 10 0 6 7 10 15 10
8 0 15 -4 15 -10z m14640 -531 c0 -5 -4 -9 -10 -9 -5 0 -10 7 -10 16 0 8 5 12
10 9 6 -3 10 -10 10 -16z m-11230 -40 c0 -24 -23 -21 -28 4 -2 10 3 17 12 17
10 0 16 -9 16 -21z m-3500 -245 c0 -8 -4 -12 -10 -9 -5 3 -10 10 -10 16 0 5 5
9 10 9 6 0 10 -7 10 -16z m6920 -20 c0 -8 -4 -12 -10 -9 -5 3 -10 10 -10 16 0
5 5 9 10 9 6 0 10 -7 10 -16z m-14000 -324 c0 -5 -4 -10 -9 -10 -6 0 -13 5
-16 10 -3 6 1 10 9 10 9 0 16 -4 16 -10z m15503 -92 c-3 -113 -5 -117 -13 -23
-4 48 -3 85 3 93 5 6 10 12 11 12 0 0 0 -37 -1 -82z m12077 -180 c0 -19 -2
-20 -10 -8 -13 19 -13 30 0 30 6 0 10 -10 10 -22z m-7310 -12 c0 -3 -4 -8 -10
-11 -5 -3 -10 -1 -10 4 0 6 5 11 10 11 6 0 10 -2 10 -4z m-493 -102 c-3 -4
-14 -3 -24 0 -15 6 -15 8 -3 16 16 10 39 -4 27 -16z m-2037 6 c0 -5 -4 -10
-10 -10 -5 0 -10 5 -10 10 0 6 5 10 10 10 6 0 10 -4 10 -10z m5760 -26 c0 -8
-4 -12 -10 -9 -5 3 -10 13 -10 21 0 8 5 12 10 9 6 -3 10 -13 10 -21z m-4400
-158 c0 -3 -4 -8 -10 -11 -5 -3 -10 -1 -10 4 0 6 5 11 10 11 6 0 10 -2 10 -4z
m-3544 -53 c-10 -10 -19 5 -10 18 6 11 8 11 12 0 2 -7 1 -15 -2 -18z m1469
-43 c3 -5 1 -10 -4 -10 -6 0 -11 5 -11 10 0 6 2 10 4 10 3 0 8 -4 11 -10z
m-1457 -79 c5 -35 -15 -50 -26 -20 -5 13 -7 30 -4 37 7 19 27 8 30 -17z
m-3468 -93 c0 -5 -4 -8 -10 -8 -5 0 -10 10 -10 23 0 18 2 19 10 7 5 -8 10 -18
10 -22z m26148 -255 c-4 -22 -22 -20 -26 1 -2 10 3 16 13 16 10 0 15 -7 13
-17z m-33058 -156 c0 -19 -20 -36 -36 -30 -8 3 -14 14 -14 24 0 14 7 19 25 19
14 0 25 -6 25 -13z m-8730 -17 c0 -5 -4 -10 -10 -10 -5 0 -10 5 -10 10 0 6 5
10 10 10 6 0 10 -4 10 -10z m16257 -52 c-3 -8 -6 -5 -6 6 -1 11 2 17 5 13 3
-3 4 -12 1 -19z m6093 7 c0 -8 -4 -15 -10 -15 -5 0 -10 7 -10 15 0 8 5 15 10
15 6 0 10 -7 10 -15z m13590 -35 c0 -18 -41 -51 -58 -48 -21 4 -28 38 -10 49
18 12 68 11 68 -1z m-15210 -100 c0 -5 -7 -10 -15 -10 -8 0 -15 5 -15 10 0 6
7 10 15 10 8 0 15 -4 15 -10z m6207 -37 c-3 -10 -5 -2 -5 17 0 19 2 27 5 18 2
-10 2 -26 0 -35z m1053 -7 c0 -3 -4 -8 -10 -11 -5 -3 -10 -1 -10 4 0 6 5 11
10 11 6 0 10 -2 10 -4z m-4545 -136 c12 -20 -6 -51 -28 -48 -28 4 -48 55 -27
68 14 9 44 -2 55 -20z m-3005 -50 c0 -12 -28 -25 -36 -17 -9 9 6 27 22 27 8 0
14 -5 14 -10z m-18700 -39 c0 -5 -7 -14 -15 -21 -16 -14 -18 -10 -9 14 6 17
24 22 24 7z m25718 -70 c5 -31 -12 -48 -32 -32 -12 10 -13 18 -4 37 14 29 32
26 36 -5z m-7166 -53 c-7 -7 -12 -8 -12 -2 0 14 12 26 19 19 2 -3 -1 -11 -7
-17z m1775 -20 c-3 -8 -6 -5 -6 6 -1 11 2 17 5 13 3 -3 4 -12 1 -19z m-12353
-74 c18 -17 22 -54 6 -54 -15 0 -50 38 -50 55 0 20 24 19 44 -1z m-7486 -96
c-6 -18 -28 -21 -28 -4 0 9 7 16 16 16 9 0 14 -5 12 -12z m16848 -59 c8 -14
-18 -31 -30 -19 -9 9 0 30 14 30 5 0 12 -5 16 -11z m2691 -125 c-9 -9 -28 6
-21 18 4 6 10 6 17 -1 6 -6 8 -13 4 -17z m417 -19 c11 -29 -21 -64 -45 -49
-10 6 -12 47 -2 57 12 12 41 7 47 -8z m9986 -45 c0 -24 -26 -38 -42 -22 -16
16 -2 42 22 42 13 0 20 -7 20 -20z m-6795 -220 c3 -5 1 -10 -4 -10 -6 0 -11 5
-11 10 0 6 2 10 4 10 3 0 8 -4 11 -10z m-3185 -58 c0 -13 -12 -22 -22 -16 -10
6 -1 24 13 24 5 0 9 -4 9 -8z m-17903 -254 c-3 -8 -6 -5 -6 6 -1 11 2 17 5 13
3 -3 4 -12 1 -19z m-4050 -230 c-3 -8 -6 -5 -6 6 -1 11 2 17 5 13 3 -3 4 -12
1 -19z m14018 -8 c8 -13 -23 -70 -38 -70 -18 0 -37 21 -37 40 0 9 5 21 12 28
14 14 54 16 63 2z m6155 -440 c0 -5 -4 -10 -10 -10 -5 0 -10 5 -10 10 0 6 5
10 10 10 6 0 10 -4 10 -10z m-16960 -131 c0 -5 -4 -9 -10 -9 -5 0 -10 7 -10
16 0 8 5 12 10 9 6 -3 10 -10 10 -16z m20090 -225 c0 -24 -4 -34 -12 -31 -7 2
-13 9 -12 15 1 7 2 21 3 32 2 35 21 21 21 -16z m-26210 -60 c0 -21 -4 -33 -10
-29 -5 3 -10 22 -10 41 0 21 4 33 10 29 6 -3 10 -22 10 -41z m21868 -2 c2 -12
-1 -22 -6 -22 -15 0 -34 28 -27 40 10 17 30 6 33 -18z m-11448 -366 c0 -18
-15 -36 -31 -36 -12 0 -19 7 -19 20 0 15 7 20 25 20 14 0 25 -2 25 -4z m3450
-26 c0 -11 -7 -20 -15 -20 -15 0 -21 21 -8 33 12 13 23 7 23 -13z m-8278 -152
c-13 -13 -26 8 -17 30 6 16 7 16 17 -1 7 -13 7 -22 0 -29z m20318 -394 c0 -8
-5 -12 -10 -9 -6 4 -8 11 -5 16 9 14 15 11 15 -7z m-5395 -4 c3 -5 1 -10 -4
-10 -6 0 -11 5 -11 10 0 6 2 10 4 10 3 0 8 -4 11 -10z m-14765 -234 c0 -11
-19 -15 -25 -6 -3 5 1 10 9 10 9 0 16 -2 16 -4z m-1843 -168 c-3 -7 -5 -2 -5
12 0 14 2 19 5 13 2 -7 2 -19 0 -25z m30193 -269 c0 -5 -7 -9 -15 -9 -9 0 -15
9 -15 21 0 18 2 19 15 9 8 -7 15 -16 15 -21z m-28121 -369 c14 -12 21 -26 17
-36 -5 -13 -10 -12 -35 8 -31 24 -40 48 -18 48 6 -1 23 -10 36 -20z m32649
-328 c2 -7 -3 -12 -12 -12 -9 0 -16 7 -16 16 0 17 22 14 28 -4z m-17988 -82
c0 -5 -4 -10 -10 -10 -5 0 -10 5 -10 10 0 6 5 10 10 10 6 0 10 -4 10 -10z
m-19914 -166 c-9 -23 -25 -16 -19 9 10 44 16 53 21 29 2 -13 1 -30 -2 -38z
m21884 -78 c0 -12 -47 -36 -71 -36 -23 0 -5 27 24 37 45 15 47 15 47 -1z
m-11050 -266 c0 -11 -4 -20 -9 -20 -14 0 -23 18 -16 30 10 17 25 11 25 -10z
m18580 -209 c0 -6 -4 -13 -10 -16 -5 -3 -10 1 -10 9 0 9 5 16 10 16 6 0 10 -4
10 -9z m-6140 -15 c0 -3 -4 -8 -10 -11 -5 -3 -10 -1 -10 4 0 6 5 11 10 11 6 0
10 -2 10 -4z m-16142 -228 c-6 -18 -28 -21 -28 -4 0 9 7 16 16 16 9 0 14 -5
12 -12z m12596 -473 c-4 -8 -10 -15 -15 -15 -5 0 -9 7 -9 15 0 8 7 15 15 15 9
0 12 -6 9 -15z m-17497 -497 c-3 -8 -6 -5 -6 6 -1 11 2 17 5 13 3 -3 4 -12 1
-19z m32393 -338 c0 -5 -4 -10 -10 -10 -5 0 -10 5 -10 10 0 6 5 10 10 10 6 0
10 -4 10 -10z m-3135 -189 c3 -5 1 -12 -4 -15 -5 -3 -11 1 -15 9 -6 16 9 21
19 6z m-12565 -137 c0 -8 -4 -12 -10 -9 -5 3 -10 10 -10 16 0 5 5 9 10 9 6 0
10 -7 10 -16z m21427 -380 c12 -17 0 -68 -19 -80 -17 -11 -48 30 -55 71 l-6
38 34 -7 c19 -3 39 -13 46 -22z m-9527 -264 c0 -5 -7 -10 -15 -10 -8 0 -15 5
-15 10 0 6 7 10 15 10 8 0 15 -4 15 -10z m-18029 -152 c5 -50 -12 -78 -36 -58
-15 13 -21 51 -8 63 11 12 43 8 44 -5z m-3113 -7 c8 -4 12 -19 10 -32 -4 -30
-45 -33 -62 -6 -9 15 -7 21 8 33 23 16 26 17 44 5z m-4158 -211 c0 -5 -2 -10
-4 -10 -3 0 -8 5 -11 10 -3 6 -1 10 4 10 6 0 11 -4 11 -10z m23320 -255 c0 -8
-4 -15 -10 -15 -5 0 -10 7 -10 15 0 8 5 15 10 15 6 0 10 -7 10 -15z m-15600
-1166 c0 -5 -4 -9 -10 -9 -5 0 -10 7 -10 16 0 8 5 12 10 9 6 -3 10 -10 10 -16z
m-13075 -219 c-5 -8 -11 -8 -17 -2 -6 6 -7 16 -3 22 5 8 11 8 17 2 6 -6 7 -16
3 -22z m19040 -304 c20 -30 6 -66 -25 -66 -10 0 -26 -3 -36 -7 -15 -6 -16 -2
-11 31 11 67 44 86 72 42z m-12917 -94 c2 -7 -3 -12 -12 -12 -9 0 -16 7 -16
16 0 17 22 14 28 -4z m16032 -301 c0 -11 -4 -22 -9 -25 -12 -8 -34 21 -26 34
11 17 35 11 35 -9z m-16583 -7 c8 -21 -13 -42 -28 -27 -13 13 -5 43 11 43 6 0
13 -7 17 -16z m5989 -626 c-1 -54 -4 -63 -28 -81 -14 -11 -31 -16 -37 -13 -17
11 -14 93 4 100 8 3 15 16 15 30 0 24 15 37 36 29 6 -2 10 -30 10 -65z m812
-8 c17 -14 23 -28 20 -52 -3 -32 -5 -33 -49 -36 -41 -3 -47 0 -57 23 -11 23
-9 31 9 56 24 34 45 36 77 9z m7032 -564 c0 -3 -4 -8 -10 -11 -5 -3 -10 -1
-10 4 0 6 5 11 10 11 6 0 10 -2 10 -4z m-20508 -1478 c-7 -7 -12 -8 -12 -2 0
14 12 26 19 19 2 -3 -1 -11 -7 -17z m14528 -338 c47 -24 59 -40 29 -40 -32 0
-102 42 -87 52 17 10 13 11 58 -12z"/>
<path d="M21605 25423 c-29 -4 -65 -29 -65 -43 0 -16 57 -30 125 -30 59 0 75
-3 75 -15 0 -18 -52 -46 -105 -56 -59 -11 -123 -37 -169 -68 -23 -15 -62 -37
-88 -50 -27 -12 -48 -27 -48 -32 0 -5 -17 -20 -38 -33 -21 -13 -53 -38 -70
-56 -46 -45 -43 -90 16 -310 77 -283 84 -348 36 -367 -26 -10 -82 53 -90 103
-7 50 -38 104 -59 104 -27 0 -38 -41 -26 -101 35 -169 35 -177 22 -246 -23
-119 -6 -243 34 -243 19 0 258 231 286 277 11 18 26 33 32 33 12 0 197 190
197 203 0 4 6 7 14 7 8 0 38 27 67 60 29 33 57 60 63 60 5 0 26 15 46 34 42
42 147 106 172 106 11 0 18 -7 18 -19 0 -20 -38 -96 -76 -151 -13 -20 -27 -50
-30 -69 l-7 -33 49 25 c27 14 82 59 122 100 40 42 97 92 127 112 31 20 55 44
55 53 0 10 -24 43 -54 73 -39 40 -56 66 -62 95 -5 28 -21 53 -59 90 -71 72
-106 117 -149 199 -44 83 -88 132 -127 140 -16 4 -46 15 -67 25 -42 20 -119
31 -167 23z"/>
<path d="M18080 24880 c-13 -13 -20 -34 -20 -57 -1 -56 53 -263 68 -263 17 0
16 91 -3 160 -10 37 -13 75 -9 118 7 68 -1 77 -36 42z"/>
<path d="M15604 25220 c-31 -12 -40 -31 -21 -45 9 -7 52 -15 94 -19 100 -8
123 -15 116 -32 -6 -17 -52 -31 -128 -39 -97 -11 -204 -56 -373 -157 -133 -80
-137 -96 -87 -344 21 -103 44 -191 55 -210 11 -17 20 -42 20 -55 0 -42 -20
-99 -35 -99 -31 0 -76 56 -104 130 -31 81 -50 102 -75 81 -20 -17 -20 -71 -1
-135 20 -67 18 -150 -5 -216 -35 -99 -18 -210 32 -210 32 0 172 97 218 151 8
10 32 31 52 46 64 49 161 125 230 183 88 72 167 132 196 147 13 7 40 26 60 42
50 39 211 114 229 107 23 -9 9 -48 -41 -114 -89 -118 -97 -146 -28 -98 21 14
42 26 46 26 5 0 34 18 65 40 31 22 85 59 121 82 36 23 67 45 70 49 3 3 15 11
28 18 32 17 27 47 -12 84 -19 18 -44 50 -56 72 -45 85 -68 115 -148 199 -45
48 -82 93 -82 102 0 8 -13 28 -30 46 -16 17 -30 37 -30 43 0 18 -75 83 -113
99 -76 33 -211 45 -263 26z"/>
<path d="M11697 24852 c-31 -34 -31 -74 2 -170 17 -50 38 -107 47 -128 14 -34
17 -37 29 -21 14 20 7 62 -24 147 -13 34 -20 80 -21 123 0 70 -6 79 -33 49z"/>
</g>
</svg>
